<svg class="logo__text" viewBox="0 0 191 22" xmlns="http://www.w3.org/2000/svg">
    <path d="M182 10.7449C181.139 10.7553 180.28 10.6442 179.45 10.4149L181.94 4.86486L184.43 10.4149C183.637 10.645 182.815 10.7562 181.99 10.7449V10.7449H182ZM190.81 14.9649L184.95 2.27486C184.74 1.68157 184.349 1.16923 183.833 0.810308C183.316 0.451391 182.699 0.264074 182.07 0.274859H181.85C181.211 0.251222 180.581 0.432541 180.052 0.792345C179.523 1.15215 179.123 1.6716 178.91 2.27486L173.09 14.9849C172.766 15.4119 172.626 15.9499 172.699 16.4806C172.772 17.0114 173.053 17.4913 173.48 17.8149C173.907 18.1384 174.445 18.2791 174.976 18.206C175.506 18.1328 175.986 17.8519 176.31 17.4249C176.497 17.2326 176.643 17.0048 176.74 16.7549L178.07 13.9649C179.365 14.3704 180.713 14.5761 182.07 14.5749C183.367 14.6027 184.659 14.4065 185.89 13.9949L187.17 16.7849C187.273 17.0304 187.425 17.2528 187.615 17.4391C187.806 17.6253 188.031 17.7716 188.279 17.8695C188.527 17.9673 188.792 18.0146 189.058 18.0086C189.324 18.0027 189.587 17.9436 189.83 17.8349C190.087 17.722 190.318 17.5562 190.507 17.3481C190.696 17.1401 190.839 16.8946 190.927 16.6275C191.015 16.3605 191.045 16.078 191.016 15.7984C190.988 15.5188 190.9 15.2484 190.76 15.0049V15.0049L190.81 14.9649ZM169.81 13.8449H168.7V2.16486C168.707 1.88373 168.656 1.60413 168.551 1.34347C168.445 1.0828 168.287 0.846644 168.086 0.649674C167.886 0.452705 167.647 0.29914 167.384 0.198532C167.121 0.0979229 166.841 0.0524221 166.56 0.0648589C166.279 0.0489127 165.997 0.0925677 165.734 0.192964C165.471 0.293361 165.232 0.448234 165.033 0.647439C164.833 0.846644 164.678 1.08569 164.578 1.34891C164.478 1.61213 164.434 1.89359 164.45 2.17486V13.8249H157V2.16486C157 1.59199 156.772 1.04259 156.367 0.637508C155.962 0.23243 155.413 0.00485897 154.84 0.00485897C154.267 0.00485897 153.718 0.23243 153.313 0.637508C152.908 1.04259 152.68 1.59199 152.68 2.16486V15.8549C152.664 16.1361 152.708 16.4176 152.808 16.6808C152.908 16.944 153.063 17.1831 153.263 17.3823C153.462 17.5815 153.701 17.7364 153.964 17.8368C154.227 17.9371 154.509 17.9808 154.79 17.9649H167.7V19.8549C167.684 20.1361 167.728 20.4176 167.828 20.6808C167.928 20.944 168.083 21.1831 168.283 21.3823C168.482 21.5815 168.721 21.7364 168.984 21.8368C169.247 21.9371 169.529 21.9808 169.81 21.9649C170.236 21.9931 170.661 21.8841 171.021 21.6538C171.38 21.4234 171.657 21.0839 171.81 20.6849C171.908 20.4198 171.949 20.1369 171.93 19.8549V15.9249C171.96 15.6404 171.926 15.3529 171.83 15.0834C171.735 14.8138 171.58 14.5689 171.378 14.3667C171.176 14.1645 170.931 14.01 170.661 13.9145C170.392 13.819 170.104 13.785 169.82 13.8149L169.81 13.8449ZM148.33 13.8449H147.22V2.16486C147.228 1.87655 147.175 1.58979 147.065 1.32333C146.954 1.05686 146.789 0.816673 146.58 0.618471C146.37 0.42027 146.121 0.268512 145.849 0.173115C145.577 0.0777182 145.287 0.0408293 145 0.0648589C144.719 0.0489127 144.437 0.0925677 144.174 0.192964C143.911 0.293361 143.672 0.448234 143.473 0.647439C143.273 0.846644 143.118 1.08569 143.018 1.34891C142.918 1.61213 142.874 1.89359 142.89 2.17486V13.8249H135.47V2.16486C135.47 1.59199 135.242 1.04259 134.837 0.637508C134.432 0.23243 133.883 0.00485897 133.31 0.00485897C132.737 0.00485897 132.188 0.23243 131.783 0.637508C131.378 1.04259 131.15 1.59199 131.15 2.16486V15.8549C131.134 16.1361 131.178 16.4176 131.278 16.6808C131.378 16.944 131.533 17.1831 131.733 17.3823C131.932 17.5815 132.171 17.7364 132.434 17.8368C132.697 17.9371 132.979 17.9808 133.26 17.9649H146.17V19.8549C146.154 20.1361 146.198 20.4176 146.298 20.6808C146.398 20.944 146.553 21.1831 146.753 21.3823C146.952 21.5815 147.191 21.7364 147.454 21.8368C147.717 21.9371 147.999 21.9808 148.28 21.9649C148.561 21.9808 148.843 21.9371 149.106 21.8368C149.369 21.7364 149.608 21.5815 149.807 21.3823C150.007 21.1831 150.161 20.944 150.262 20.6808C150.362 20.4176 150.406 20.1361 150.39 19.8549V15.9249C150.417 15.6449 150.383 15.3623 150.289 15.0972C150.195 14.832 150.044 14.5907 149.846 14.3904C149.649 14.1901 149.41 14.0356 149.146 13.9379C148.882 13.8401 148.6 13.8016 148.32 13.8249L148.33 13.8449ZM124.43 0.224859H124.26C122.98 0.224859 122.15 0.834859 121.26 2.11486L114.26 12.0449V2.34486C114.26 1.79056 114.04 1.25896 113.648 0.867006C113.256 0.475055 112.724 0.254859 112.17 0.254859C111.616 0.254859 111.084 0.475055 110.692 0.867006C110.3 1.25896 110.08 1.79056 110.08 2.34486V15.5449C110.058 15.8635 110.104 16.1833 110.216 16.4826C110.328 16.7819 110.502 17.0538 110.727 17.2802C110.953 17.5065 111.224 17.6821 111.523 17.795C111.822 17.9079 112.141 17.9556 112.46 17.9349H112.68C113.302 17.9124 113.908 17.7258 114.434 17.3939C114.961 17.0619 115.391 16.5965 115.68 16.0449L122.68 6.11486V15.8249C122.68 16.3686 122.896 16.89 123.28 17.2744C123.665 17.6589 124.186 17.8749 124.73 17.8749C125.274 17.8749 125.795 17.6589 126.18 17.2744C126.564 16.89 126.78 16.3686 126.78 15.8249V2.61486C126.805 2.29032 126.758 1.96426 126.644 1.65958C126.529 1.35491 126.349 1.079 126.117 0.851235C125.884 0.62347 125.605 0.44937 125.298 0.34116C124.991 0.23295 124.664 0.193254 124.34 0.224859V0.224859H124.43ZM103.56 0.224859H91.56C91.2803 0.213142 91.0012 0.260276 90.7409 0.363212C90.4805 0.466149 90.2447 0.622593 90.0487 0.822425C89.8526 1.02226 89.7007 1.26102 89.6027 1.52328C89.5047 1.78553 89.4629 2.06543 89.48 2.34486V16.0449C89.4716 16.3289 89.5224 16.6116 89.6292 16.875C89.7359 17.1384 89.8962 17.3767 90.1 17.5749C90.3008 17.7752 90.542 17.9306 90.8076 18.0306C91.0731 18.1306 91.3568 18.1729 91.64 18.1549C91.9212 18.1708 92.2027 18.1271 92.4659 18.0268C92.7292 17.9264 92.9682 17.7715 93.1674 17.5723C93.3666 17.3731 93.5215 17.134 93.6219 16.8708C93.7223 16.6076 93.7659 16.3261 93.75 16.0449V4.34486H101.4V16.0449C101.383 16.3306 101.428 16.6166 101.531 16.8836C101.635 17.1505 101.794 17.3922 101.999 17.5922C102.204 17.7922 102.449 17.946 102.718 18.0431C102.988 18.1401 103.275 18.1782 103.56 18.1549C103.848 18.1677 104.135 18.1203 104.404 18.0157C104.673 17.9111 104.916 17.7515 105.12 17.5473C105.323 17.343 105.481 17.0985 105.585 16.8294C105.688 16.5604 105.734 16.2727 105.72 15.9849V2.27486C105.728 1.99402 105.677 1.71466 105.569 1.45498C105.462 1.19529 105.301 0.961122 105.098 0.767715C104.894 0.574308 104.652 0.426006 104.387 0.332472C104.122 0.238938 103.84 0.202271 103.56 0.224859V0.224859ZM72.61 14.0949C71.9583 14.1068 71.3112 13.9843 70.709 13.7349C70.1069 13.4855 69.5626 13.1146 69.1102 12.6454C68.6579 12.1761 68.3072 11.6186 68.08 11.0077C67.8529 10.3968 67.7541 9.74564 67.79 9.09486C67.7641 8.44934 67.8701 7.80532 68.1016 7.20218C68.3331 6.59905 68.6852 6.04947 69.1364 5.58708C69.5875 5.12468 70.1283 4.75917 70.7255 4.51291C71.3228 4.26665 71.964 4.14482 72.61 4.15486C73.2571 4.14043 73.9003 4.25928 74.4996 4.50401C75.0989 4.74873 75.6414 5.11411 76.0935 5.57743C76.5455 6.04074 76.8975 6.59209 77.1274 7.1972C77.3573 7.80232 77.4603 8.44825 77.43 9.09486C77.4673 9.746 77.3697 10.3978 77.143 11.0094C76.9164 11.621 76.5657 12.1791 76.1131 12.6486C75.6604 13.1182 75.1156 13.4891 74.5127 13.7379C73.9099 13.9868 73.262 14.1083 72.61 14.0949V14.0949ZM72.61 0.0948589C71.4165 0.0679067 70.2298 0.281608 69.1207 0.723215C68.0116 1.16482 67.0028 1.82529 66.1544 2.66522C65.3061 3.50515 64.6356 4.50733 64.183 5.61199C63.7304 6.71665 63.5049 7.90116 63.52 9.09486C63.4993 10.2901 63.7209 11.4771 64.1716 12.5844C64.6222 13.6916 65.2925 14.696 66.142 15.5371C66.9914 16.3782 68.0025 17.0384 69.1142 17.478C70.2258 17.9176 71.415 18.1275 72.61 18.0949C73.8079 18.1069 74.9961 17.8797 76.1051 17.4265C77.214 16.9733 78.2214 16.3033 79.068 15.4558C79.9146 14.6082 80.5835 13.6002 81.0355 12.4907C81.4874 11.3813 81.7133 10.1928 81.7 8.99486C81.7017 7.81045 81.4661 6.63769 81.0073 5.54577C80.5484 4.45386 79.8755 3.46489 79.0283 2.63723C78.1811 1.80957 77.1766 1.15997 76.0743 0.726752C74.972 0.293537 73.794 0.085481 72.61 0.114859V0.0948589ZM55.15 13.8249H48.15C48.6165 12.8695 48.9689 11.8626 49.2 10.8249C49.4824 9.37795 49.6364 7.90889 49.66 6.43486L49.77 4.34486H55.2L55.15 13.8249ZM60.53 13.8249H59.42V2.34486C59.4345 2.06544 59.3902 1.78609 59.29 1.52486C59.1388 1.12397 58.8628 0.782237 58.5027 0.549997C58.1427 0.317758 57.7176 0.207288 57.29 0.234859H47.48C47.21 0.228511 46.9418 0.28041 46.6936 0.387021C46.4455 0.493633 46.2233 0.652455 46.042 0.852677C45.8608 1.0529 45.7248 1.28982 45.6433 1.54731C45.5619 1.80481 45.5369 2.07683 45.57 2.34486V5.12486C45.6104 6.86762 45.4731 8.60997 45.16 10.3249C44.9582 11.5761 44.4837 12.7676 43.77 13.8149H43.3C43.0199 13.7926 42.7384 13.8325 42.4754 13.9315C42.2125 14.0306 41.9747 14.1864 41.7789 14.3879C41.5831 14.5894 41.4342 14.8316 41.3428 15.0973C41.2514 15.363 41.2197 15.6455 41.25 15.9249V19.8649C41.234 20.1461 41.2777 20.4276 41.3781 20.6908C41.4785 20.954 41.6334 21.1931 41.8326 21.3923C42.0318 21.5915 42.2708 21.7464 42.534 21.8468C42.7972 21.9471 43.0787 21.9908 43.36 21.9749C43.6412 21.9908 43.9227 21.9471 44.1859 21.8468C44.4492 21.7464 44.6882 21.5915 44.8874 21.3923C45.0866 21.1931 45.2415 20.954 45.3419 20.6908C45.4423 20.4276 45.4859 20.1461 45.47 19.8649V17.9849H58.38V19.8749C58.3643 20.1544 58.4074 20.434 58.5066 20.6958C58.6058 20.9576 58.7589 21.1956 58.9559 21.3945C59.1529 21.5934 59.3895 21.7487 59.6503 21.8504C59.9111 21.9521 60.1903 21.9979 60.47 21.9849C60.7512 22.0008 61.0327 21.9571 61.2959 21.8568C61.5592 21.7564 61.7982 21.6015 61.9974 21.4023C62.1966 21.2031 62.3515 20.964 62.4519 20.7008C62.5523 20.4376 62.5959 20.1561 62.58 19.8749V15.9249C62.6199 15.6437 62.595 15.3571 62.507 15.0871C62.4191 14.817 62.2704 14.5707 62.0725 14.367C61.8746 14.1633 61.6327 14.0077 61.3653 13.9119C61.0979 13.8162 60.8122 13.783 60.53 13.8149V13.8149V13.8249ZM31.76 14.1049C31.1083 14.1168 30.4612 13.9943 29.859 13.7449C29.2569 13.4955 28.7126 13.1246 28.2602 12.6554C27.8079 12.1861 27.4572 11.6286 27.23 11.0177C27.0029 10.4068 26.9041 9.75564 26.94 9.10486C26.94 7.82652 27.4478 6.60053 28.3517 5.6966C29.2556 4.79268 30.4816 4.28486 31.76 4.28486C33.0383 4.28486 34.2643 4.79268 35.1682 5.6966C36.0722 6.60053 36.58 7.82652 36.58 9.10486C36.6205 9.75626 36.5249 10.409 36.2993 11.0214C36.0737 11.6338 35.723 12.1925 35.2695 12.662C34.8161 13.1314 34.2699 13.5012 33.6656 13.7479C33.0614 13.9946 32.4124 14.1128 31.76 14.0949V14.1049ZM31.76 0.104859C30.5665 0.0779067 29.3798 0.291608 28.2707 0.733215C27.1616 1.17482 26.1528 1.83529 25.3044 2.67522C24.4561 3.51515 23.7856 4.51733 23.333 5.62199C22.8804 6.72665 22.6549 7.91116 22.67 9.10486C22.6478 10.3013 22.8688 11.4899 23.3195 12.5984C23.7703 13.707 24.4414 14.7125 25.2923 15.554C26.1431 16.3955 27.156 17.0555 28.2694 17.494C29.3829 17.9324 30.5738 18.1403 31.77 18.1049C32.9679 18.1169 34.1561 17.8897 35.2651 17.4365C36.374 16.9833 37.3814 16.3133 38.228 15.4658C39.0746 14.6182 39.7435 13.6102 40.1955 12.5007C40.6474 11.3913 40.8733 10.2028 40.86 9.00486C40.8879 7.80769 40.6711 6.61743 40.223 5.50694C39.7749 4.39646 39.1048 3.38911 38.2539 2.54658C37.4029 1.70405 36.3889 1.04406 35.2741 0.607015C34.1592 0.169972 32.9668 -0.0349284 31.77 0.00485897V0.00485897L31.76 0.104859ZM14.2 13.7949H7.19998C7.66663 12.8396 8.01906 11.8326 8.24998 10.7949C8.53307 9.34804 8.68701 7.87893 8.70998 6.40486L8.81998 4.34486H14.25L14.2 13.7949ZM19.58 13.7949H18.47V2.34486C18.4859 2.06359 18.4423 1.78213 18.3419 1.51891C18.2415 1.25569 18.0866 1.01664 17.8874 0.817439C17.6882 0.618234 17.4492 0.463361 17.1859 0.362964C16.9227 0.262568 16.6412 0.218913 16.36 0.234859H6.55998C6.2875 0.224081 6.01594 0.272708 5.76413 0.377367C5.51232 0.482026 5.2863 0.640211 5.10173 0.84095C4.91717 1.04169 4.77848 1.28018 4.69529 1.53987C4.6121 1.79956 4.5864 2.07424 4.61998 2.34486V5.12486C4.69704 6.87416 4.56613 8.62643 4.22998 10.3449C4.02822 11.5961 3.55367 12.7876 2.83998 13.8349H2.36998C2.0899 13.8126 1.80837 13.8525 1.54545 13.9515C1.28254 14.0506 1.04471 14.2064 0.848928 14.4079C0.653147 14.6094 0.504232 14.8516 0.412802 15.1173C0.321371 15.383 0.289678 15.6655 0.319978 15.9449V19.8849C0.304925 20.1689 0.350633 20.4529 0.45405 20.7179C0.557467 20.9828 0.716216 21.2227 0.919698 21.4215C1.12318 21.6202 1.36672 21.7733 1.63405 21.8704C1.90138 21.9676 2.18637 22.0066 2.46998 21.9849C2.75125 22.0008 3.03271 21.9571 3.29593 21.8568C3.55915 21.7564 3.7982 21.6015 3.9974 21.4023C4.1966 21.2031 4.35148 20.964 4.45187 20.7008C4.55227 20.4376 4.59593 20.1561 4.57998 19.8749V17.9849H17.49V19.8749C17.474 20.1561 17.5177 20.4376 17.6181 20.7008C17.7185 20.964 17.8734 21.2031 18.0726 21.4023C18.2718 21.6015 18.5108 21.7564 18.774 21.8568C19.0372 21.9571 19.3187 22.0008 19.6 21.9849C19.8812 22.0008 20.1627 21.9571 20.4259 21.8568C20.6891 21.7564 20.9282 21.6015 21.1274 21.4023C21.3266 21.2031 21.4815 20.964 21.5819 20.7008C21.6823 20.4376 21.7259 20.1561 21.71 19.8749V15.9249C21.7398 15.6404 21.7058 15.3529 21.6103 15.0834C21.5148 14.8138 21.3603 14.5689 21.1581 14.3667C20.9559 14.1645 20.7111 14.01 20.4415 13.9145C20.1719 13.819 19.8844 13.785 19.6 13.8149" />
</svg>
